mtllib model_2.mtl
o model_2
v 553.6524658203125 163.89794921875 511.9016418457031 
v 553.6524658203125 163.8980712890625 -453.1674499511719 
v -411.4166259765625 163.89794921875 511.9016418457031 
v -411.4166259765625 163.8980712890625 -453.1674499511719 
v -411.4166259765625 163.89794921875 511.9016418457031 
v -411.4166259765625 163.8980712890625 -453.1674499511719 
v -6737.98095703125 163.89813232421875 -6779.7314453125 
v 6880.21630859375 163.89813232421875 -6779.7314453125 
v 553.6524658203125 163.8980712890625 -453.1674499511719 
v 6880.21630859375 163.89813232421875 6838.4658203125 
v 553.6524658203125 163.89794921875 511.9016418457031 
v -6737.98095703125 163.89813232421875 6838.4658203125 
vn 0 0.006878809072077274 -1.120703529977618e-9 
vn 0 0.006878809072077274 -1.120703529977618e-9 
vn 0 0.006878809072077274 -1.120703529977618e-9 
vn 0 0.006878809072077274 -1.120703529977618e-9 
vn 0 0.006878809072077274 -1.120703529977618e-9 
vn 0 0.006878809072077274 -1.120703529977618e-9 
vn 0.0039804973639547825 0.003962602932006121 0.0039713261649012566 
vn -0.003962134942412376 0.003962602932006121 0.003989646676927805 
vn 0 0.006878809072077274 -1.120703529977618e-9 
vn -0.003962134942412376 0.003962601535022259 -0.003989648073911667 
vn 0 0.006878809072077274 -1.120703529977618e-9 
vn 0.0039804973639547825 0.003962601535022259 -0.0039713275618851185 
vt 0.9990876317024231 0.0009159999899566174 
vt 0.9990876317024231 0.9990876317024231 
vt 0.0009159999899566174 0.0009159999899566174 
vt 0.0009159999899566174 0.9990876317024231 
vt 0.08597567677497864 0.9374254941940308 
vt 0.08597567677497864 0.9435185790061951 
vt 0.0706210657954216 0.9588731527328491 
vt 0.10742338746786118 0.9588731527328491 
vt 0.09206877648830414 0.9435185790061951 
vt 0.10742338746786118 0.9220708608627319 
vt 0.09206877648830414 0.9374254941940308 
vt 0.0706210657954216 0.9220708608627319 
s on 
f 1/1/1 2/2/2 3/3/3 
f 2/2/2 4/4/4 3/3/3 
f 3/3/3 4/4/4 4/4/4 
f 4/4/4 5/5/5 4/4/4 
f 4/4/4 5/5/5 5/5/5 
f 5/5/5 6/6/6 5/5/5 
f 5/5/5 6/6/6 7/7/7 
f 6/6/6 6/6/6 7/7/7 
f 7/7/7 6/6/6 8/8/8 
f 6/6/6 9/9/9 8/8/8 
f 8/8/8 9/9/9 10/10/10 
f 9/9/9 11/11/11 10/10/10 
f 10/10/10 11/11/11 12/12/12 
f 11/11/11 5/5/5 12/12/12 
f 12/12/12 5/5/5 7/7/7 

